<svg xmlns="http://www.w3.org/2000/svg" width="800" height="600" viewBox="0 0 800 600">
  <rect width="800" height="600" fill="#F5F2EC"/>
  <rect x="24" y="24" width="752" height="552" fill="none" stroke="#E4DED2" stroke-width="2"/>
  <path d="M24 96v-24h24M776 96v-24h-24M24 504v24h24M776 504v24h-24" fill="none" stroke="#E4DED2" stroke-width="2"/>
  <text x="56" y="66" font-family="Archivo, 'Segoe UI', Arial, sans-serif" font-size="15" font-weight="600" letter-spacing="4" fill="#6E6559">LUMEN CATALOGUE</text>
  <text x="744" y="66" font-family="Archivo, 'Segoe UI', Arial, sans-serif" font-size="15" font-weight="600" letter-spacing="3" fill="#6E6559" text-anchor="end">AUDIO · 01</text>
  <text x="56" y="522" font-family="Archivo, 'Segoe UI', Arial, sans-serif" font-size="26" font-weight="600" fill="#201C17">Aura Pro Wireless Headphones</text>
  <text x="744" y="522" font-family="Archivo, 'Segoe UI', Arial, sans-serif" font-size="15" font-weight="500" fill="#6E6559" text-anchor="end">№ 01</text>
  <g stroke="#201C17" fill="none" stroke-width="4.5" stroke-linecap="round" stroke-linejoin="round">

    <path d="M300 292 q0 -70 100 -70 q100 0 100 70"/>
    <rect x="258" y="286" width="74" height="112" rx="34"/>
    <rect x="468" y="286" width="74" height="112" rx="34"/>
    <rect x="268" y="304" width="54" height="72" rx="20" fill="#C33D22" stroke="none"/>
    <rect x="478" y="304" width="54" height="72" rx="20" fill="#C33D22" stroke="none"/>
    <circle cx="295" cy="340" r="9" fill="#F5F2EC" stroke="none"/>
    <circle cx="505" cy="340" r="9" fill="#F5F2EC" stroke="none"/>
    <path d="M414 236 l6 -6 M420 230 l6 -6 M426 224 l6 -6"/>
  </g>
</svg>
